<?xml version="1.0" encoding="utf-8"?>
<svg version="1.1" xmlns="http://www.w3.org/2000/svg" xmlns:xlink="http://www.w3.org/1999/xlink" x="0px" y="0px" width="760px"
	 height="600px" viewBox="0 0 760 600" style="enable-background:new 0 0 760 600;" xml:space="preserve">
<style type="text/css">
	.productfill{fill:#111111;}
	.productoutline1{fill:#474747;}
	.productoutline2{fill:#1F1F1F;}
	.led{fill:#000000;}
	.selection{
		stroke: #44d62c;
		stroke-width: 2px;
		stroke-linejoin: round;
		fill: transparent;
		position: relative;
</style>
<g id="Product">
	<path class="productfill" d="M683,61H474c-4.2,0-8-2.2-10.2-5.7l-7.1-11.5c-1.8-3-5-4.8-8.5-4.8H384V19h-8v20h-63.4
		c-3.4,0-6.5,1.7-8.4,4.5l-7.8,12c-2.2,3.4-6,5.5-10.1,5.5H77c-19.3,0-35,15.7-35,35v414c0,19.3,15.7,35,35,35h606
		c19.3,0,35-15.7,35-35V96C718,76.7,702.3,61,683,61z"/>
	<path class="productoutline1" d="M683,61H474c-4.2,0-8-2.2-10.2-5.7l-7.1-11.5c-1.8-3-5-4.8-8.5-4.8H384V19h-1v20v1h1
		h64.2c3.1,0,6,1.6,7.7,4.3l2.1,3.4l-13.5,10.9c-4.4,3.5-9.8,5.4-15.4,5.4h-98c-5.6,0-11.1-1.9-15.4-5.4L302.5,48l2.6-4
		c1.7-2.6,4.5-4.1,7.5-4.1H376h1v-1V19h-1v20h-63.4c-3.4,0-6.5,1.7-8.4,4.5l-7.8,12c-2.2,3.4-6,5.5-10.1,5.5H77
		c-19.3,0-35,15.7-35,35v414c0,19.3,15.7,35,35,35h606c19.3,0,35-15.7,35-35V96C718,76.7,702.3,61,683,61z M297.3,56.1l4.7-7.2
		l13,10.5C319.5,63,325.2,65,331,65h98c5.8,0,11.5-2,16.1-5.7l13.4-10.8l4.5,7.3c1.1,1.8,2.6,3.2,4.3,4.3l-16.5,14.8
		c-3.7,3.3-8.5,5.1-13.4,5.1H322.7c-5,0-9.7-1.8-13.4-5.1l-16.4-14.6C294.6,59.2,296.2,57.8,297.3,56.1z M717,510
		c0,18.7-15.3,34-34,34H77c-18.7,0-34-15.3-34-34V96c0-18.7,15.3-34,34-34h209.4c2,0,3.9-0.5,5.6-1.3l16.6,14.9
		c3.9,3.5,8.9,5.4,14.1,5.4h114.6c5.2,0,10.2-1.9,14.1-5.4l16.8-15C470,61.5,472,62,474,62h209c18.7,0,34,15.3,34,34V510z"/>
</g>
<g id="LED">
	<path id="led-1" class="led" d="M44,173h1V96c0-16.6,12.8-30.3,29-31.9v-1v-2v-8C51.7,54.7,34,73.3,34,96v77h8H44z"/>
	<polygon id="led-2" class="led" points="44,286 45,286 45,174 44,174 42,174 34,174 34,286 42,286"/>
	<polygon id="led-3" class="led" points="44,399 45,399 45,287 44,287 42,287 34,287 34,399 42,399"/>
	<polygon id="led-4" class="led" points="44,512 45,512 45,400 44,400 42,400 34,400 34,512 42,512"/>
	<path id="led-5" class="led" d="M45.1,513h-1h-2h-8c1.5,22.3,20.2,40,42.9,40h62v-8v-2v-1H77C60.4,542,46.7,529.2,45.1,513z"/>
	<polygon id="led-6" class="led" points="140,543 140,545 140,553 235,553 235,545 235,543 235,542 140,542"/>
	<polygon id="led-7" class="led" points="236,543 236,545 236,553 331,553 331,545 331,543 331,542 236,542"/>
	<polygon id="led-8" class="led" points="332,543 332,545 332,553 428,553 428,545 428,543 428,542 332,542"/>
	<rect x="429" y="542" id="led-9" class="led" width="95" height="11"/>
	<rect x="525" y="542" id="led-10" class="led" width="95" height="11"/>
	<path id="led-11" class="led" d="M715.9,513h-1c-1.5,16.2-15.2,29-31.9,29h-62v1v2v8h62c22.7,0,41.3-17.7,42.9-40h-8H715.9z"/>
	<polygon id="led-12" class="led" points="716,400 715,400 715,512 716,512 718,512 726,512 726,400 718,400"/>
	<polygon id="led-13" class="led" points="716,287 715,287 715,399 716,399 718,399 726,399 726,287 718,287"/>
	<polygon id="led-14" class="led" points="716,174 715,174 715,286 716,286 718,286 726,286 726,174 718,174"/>
	<g id="led-15" class="led">
		<path d="M726,96v77h-8h-2h-1V96c0-16.6-12.8-30.3-29-31.9v-1v-2v-8C708.3,54.7,726,73.3,726,96z"/>
		<path transform="scale(0.4), translate(1527,222)"
			d="M196.8,3.8c0.2-1.2-0.2-2.5-1.3-3.2c-1.3-1-3.2-0.8-4.3,0.4L189.4,3l-2.7,1.2c-1-0.3-2.1-0.3-3.2,0
			c-0.6,0.2-0.8,0.1-1.4,0c-1.3-0.2-2.6-0.4-4.7,0.3c-0.7,0-1.6,0.1-3,0.5c-1.7,0.6-2.8,1.9-3.6,2.9c-0.1,0.1-0.2,0.2-0.3,0.3
			c-4.9,1.3-6.9,4-7.6,6.2c-0.1,0.4-0.2,0.8-0.3,1.2c-5.2-3.9-12.3-4.3-18.3-0.7c-6.9,4.1-10,11.7-7.9,19.6
			c3.5,12.7,15.5,24.6,22.6,31.7l2.3,2.3c3.7,3.8,8.6,11.5,7.6,16.6c-0.2,1.3-0.9,3.1-4,4.6c-1.6,0.7-3.1,1.2-4.6,1.3
			c2.6-7.4,1.4-15.4-3.7-20.6c-7.2-7.5-14-5.6-16.5-3.6c-1.1,0.9-1.5,2.3-1.1,3.6c0.5,1.3,1.7,2.2,3.1,2.2c3.4,0,7.3,2.6,9,6
			c1.4,2.9,1.1,6-0.8,9.1c-1.5-1.2-2.7-2.5-3.8-3.6c-0.4-0.5-0.9-0.9-1.2-1.3c0,0-0.2-0.2-0.3-0.3c-5.2-5.8-10.4-9.2-15.7-10.1
			c-0.7-9.3-7.2-18.7-17.2-24.1c-0.8-0.4-1.6-0.8-2.5-1.2c-1.9-9.7-7.8-16.2-17.3-18.9C78.7,24.2,67.7,30.3,62.4,45
			c-1.8,5-5.7,22-8.8,36.3L53,84c-0.4,1.9-2.6,5.3-5,6.1c-0.7,0.2-1.5,0.3-2.6-0.6c-2.3-1.9-0.9-7.3-0.2-10.2c0.1-0.6,0.3-1,0.4-1.5
			c0.6-2.8-0.3-5.9-2.4-8.1c-2-2.2-4.8-3.1-7.7-2.7c-6,0.9-8,5.8-8.7,8c-0.6-1.1-1.4-2.6-2.9-3.5c-1.2-0.7-2.1-1-2.8-1.1
			c-1.9-1.1-3.3-1.2-4.6-1.2c-0.6,0-0.8,0-1.4-0.3c-1.2-0.6-2.4-0.7-3.6-0.5L9.3,67l-1.4-2.2C7,63.5,5.2,63,3.7,63.8
			c-1.1,0.6-1.8,1.8-1.7,3C0.8,67.2,0,68.4,0,69.6c0,1.7,1.2,3.1,2.8,3.3l2.6,0.4l2.2,1.4c0.3,1.1,0.9,2.2,1.9,3
			c0.5,0.4,0.6,0.6,0.8,1.1c0.5,1.2,1.2,2.3,3,3.7c0.4,0.6,1,1.3,2.1,2.1c1.5,1.1,3.2,1.1,4.4,1.2c0.1,0,0.3,0,0.4,0
			c3.9,3.3,7.3,3.2,9.5,2.6c0.4-0.1,0.8-0.3,1.2-0.5c-0.2,6.5,3.7,12.5,10.1,15.3c7.3,3.3,15.4,1.3,20.5-5c8.3-10.2,11-26.9,12.6-36.9
			l0.5-3.2c0.9-5.3,4.4-13.7,9.1-15.9c1.2-0.5,3.1-1.1,6.1,0.6c1.5,0.9,2.8,1.9,3.8,3c-7.6,2.2-13.3,7.9-14.6,15
			c-1.9,10.2,3.6,14.6,6.7,15.5c1.3,0.4,2.8-0.1,3.6-1.2c0.8-1.1,0.8-2.6,0-3.8c-2-2.8-2.2-7.4-0.4-10.8c1.5-2.8,4.2-4.4,7.8-4.6
			c-0.1,1.9-0.5,3.7-0.7,5.2c-0.1,0.6-0.2,1.2-0.3,1.7c0,0.1-0.1,0.2-0.1,0.4C94,70.2,94.1,76,95.8,80.7c-7.6,4.7-13,14.3-13.8,25.1
			c-0.1,0.9-0.1,1.8,0,2.8c-8,5.7-11.5,13.8-10,23.6c2.2,14.2,12.4,21.6,27.9,20.3c5.3-0.4,22.4-4,36.7-7.1l2.7-0.6
			c1.9-0.4,5.9,0.2,7.6,2c0.5,0.5,0.9,1.2,0.5,2.6c-0.7,2.9-6.2,3.9-9.2,4.4c-0.6,0.1-1.1,0.2-1.5,0.3c-2.8,0.6-5.2,2.7-6.3,5.5
			c-1.1,2.7-0.9,5.7,0.7,8.1c3.3,5.1,8.6,4.8,10.9,4.6c-0.8,1-1.8,2.3-1.9,4.1c-0.1,1.4,0,2.3,0.2,3c-0.2,2.2,0.3,3.5,0.8,4.7
			c0.2,0.5,0.3,0.7,0.3,1.4c0,1.4,0.4,2.6,1.1,3.6l-0.5,3.3l-1.4,2.2c-0.9,1.4-0.6,3.3,0.7,4.3c1,0.8,2.3,0.9,3.4,0.4
			c0.9,0.8,2.2,1.1,3.4,0.6c1.5-0.6,2.3-2.3,1.9-3.9l-0.7-2.5l0.5-3.6c0.8-0.7,1.5-1.7,1.8-2.9c0.2-0.6,0.3-0.8,0.7-1.2
			c0.8-1,1.6-2,2.1-4.2c0.4-0.6,0.7-1.4,1-2.8c0.4-1.8-0.3-3.4-0.8-4.5c0-0.1-0.1-0.3-0.2-0.4c1.3-4.9-0.1-7.9-1.6-9.7
			c-0.3-0.3-0.6-0.6-0.9-0.9c6-2.5,9.8-8.5,9.7-15.5c-0.1-8-5.2-14.5-13.1-16.6c-12.7-3.3-29,1.2-38.7,3.9l-3.2,0.9
			c-5.2,1.4-14.2,1.7-18.2-1.7c-1-0.8-2.3-2.4-1.9-5.8c0.2-1.7,0.5-3.3,1.1-4.7c5.1,6,12.7,8.8,19.7,7.1c10-2.5,11.8-9.3,11.3-12.6
			c-0.2-1.4-1.2-2.5-2.6-2.7c-1.4-0.3-2.7,0.4-3.4,1.6c-1.7,3-5.9,5.1-9.6,4.9c-3.2-0.2-5.8-2-7.5-5.2c1.8-0.7,3.5-1.1,5-1.5
			c0.6-0.2,1.2-0.3,1.7-0.4c0.1,0,0.2-0.1,0.4-0.1c7.9-1.6,13.5-4.7,16.9-9c7.9,4,18.5,3.8,28-0.8c0.8-0.4,1.6-0.9,2.4-1.3
			c9,4.1,17.7,3.1,25.4-3c11.2-9,12.6-21.5,3.8-34.3c-3-4.4-14.6-17.4-24.4-28.3l-1.8-2c-1.3-1.4-2.8-5.2-2.1-7.6
			c0.2-0.7,0.6-1.4,2-1.8c2.9-0.8,6.5,3.5,8.4,5.8c0.4,0.4,0.7,0.8,1,1.2c1.9,2.1,4.9,3.2,7.9,2.8c2.9-0.4,5.4-2.1,6.7-4.7
			c2.8-5.4-0.1-9.8-1.4-11.7c1.2,0.2,2.9,0.4,4.5-0.4c1.3-0.6,2-1.1,2.5-1.6c2-0.9,2.9-2,3.6-3c0.3-0.5,0.5-0.6,1-1
			c1.6-0.9,2.3-2.1,2.7-3l2.4-1l2.6,0c1.7,0,3.1-1.2,3.3-2.9C198.4,5.7,197.8,4.5,196.8,3.8z M191.7,6.5l-4.7,2c0.1,0.2,0.1,0.5,0,0.9
			c0,0,0,0.1,0,0.1c-0.1,0.5-0.5,1-1.2,1.4c-2.7,1.5-1.7,2.7-4.9,4c-0.7,0.3-0.1,0.5-2.1,1.5c-1.4,0.6-3.7-0.3-4.7,0
			c-0.6,0.2-3.5,1.6-1.7,4.4c0.9,1.3,4,4.7,1.7,9.2c-1.9,3.7-7,3.7-9.3,1.2c-2.1-2.4-7.1-9.4-12.7-7.9c-7.2,2-4.4,11.4-1.5,14.7
			c3.1,3.5,22.2,24.6,26,30.1c4.4,6.4,10.3,19.2-3.1,30c-8.8,7-17.3,5.2-23.6,1.8c-1.1,0.8-2.3,1.5-3.6,2.2
			c-9.2,4.4-20.3,4.6-27.6-0.7c-4,8.3-16,10-17.1,10.3c-2.4,0.7-6.4,1.4-10.1,3.4c0.2,0.5,0.3,1.1,0.6,1.6c5.4,12.9,19.5,9.1,23.6,2
			c0,0,0.9,6.5-8.9,9c-7.1,1.8-15-2.4-19-9.7c-2.2,2.3-3.9,5.5-4.3,10.1c-1.3,13.5,16.7,12.9,24.2,10.9c8.3-2.2,26.9-8.2,40.3-4.8
			c14.2,3.7,13.7,23.1,1.3,26.5c-3.6,1-5.9,1.3-7.4,1.7c-1,0.3-1.1,1.8,1.5,1.4c2-0.3,10.9,0.4,8,9.7c-0.3,1,1.3,3,1,4.6
			c-0.4,2.2-0.8,1.7-0.9,2.4c-0.6,3.4-2,2.7-2.8,5.6c-0.3,1.2-1,1.6-1.7,1.7l-0.8,5.9l0.9,3.2l-1.5-2.7l-2.1,2.2l1.8-2.8l0.8-5.8
			c-0.2-0.1-0.3-0.1-0.4-0.2v0c0,0-0.1-0.1-0.1-0.1c-0.1-0.1-0.1-0.1-0.1-0.1l0,0c-0.4-0.4-0.7-0.9-0.7-1.9c0-3-1.5-2.8-1.1-6.2
			c0.1-0.7-0.4-0.4-0.2-2.6c0.1-1.5,2.1-3.1,2.3-4.1c0.1-0.7,0.3-3.8-3-3.6c-1.6,0.1-6.1,1.1-8.8-3c-2.3-3.5,0.2-7.9,3.6-8.7
			c3.1-0.7,11.7-1.5,13.1-7.1c1.9-7.2-7.7-9.5-12-8.6c-4.5,1-32.4,7.1-39,7.6c-7.7,0.6-21.8-0.6-24.5-17.6
			c-1.7-11.1,4.1-17.6,10.1-21.4c-0.2-1.4-0.2-2.8-0.1-4.2c0.8-10.4,6.4-20.4,14.9-23.9c-4.6-7.1-1.5-17.5-1.4-18.6
			c0.4-2.5,1.4-6.4,1.1-10.6c-0.5-0.1-1.1-0.1-1.7-0.1c-14-0.4-16.4,14-11.6,20.6c0,0-6.3-1.8-4.4-11.8c1.3-7.2,8.4-12.6,16.7-13.2
			c-1.2-3-3.4-5.8-7.4-8.1c-11.8-6.8-18.6,9.8-20,17.5C70,66.2,67.7,85.6,59,96.3c-9.3,11.4-26.7,2.9-24.7-9.9
			c0.6-3.7,1.3-5.9,1.5-7.5c0.2-1-1.2-1.7-1.9,0.8c-0.5,2-4.9,9.8-12.1,3.2c-0.7-0.7-3.3-0.1-4.6-1c-1.8-1.3-1.2-1.5-1.8-1.9
			c-2.9-2-1.7-2.9-4-4.9c-1-0.8-1.1-1.7-0.9-2.4l-4.3-2.7l-3.3-0.5l3-0.3l-1.1-2.8L7,69.4l4.3,2.7c0.2-0.1,0.3-0.3,0.4-0.4
			c0.5-0.2,1.2-0.3,2,0.1c2.7,1.3,3.1-0.2,6.1,1.6c0.6,0.4,0.5-0.2,2.4,0.9c1.3,0.8,1.9,3.2,2.7,3.8c0.6,0.4,3.3,1.9,4.5-1.2
			c0.6-1.5,1.5-6,6.4-6.7c4.1-0.6,7.1,3.5,6.4,6.9c-0.7,3.1-3.5,11.3,1,14.9c5.8,4.7,11.8-3,12.8-7.3c1-4.5,7.1-32.4,9.3-38.6
			c2.6-7.3,9.7-19.6,26.2-14.9c10.8,3.1,14.3,11.1,15.2,18.1c1.3,0.4,2.6,1,3.9,1.7c9.4,5.2,16.3,14.8,15.5,24.3
			c8.9-0.2,16.1,8.9,16.9,9.7c1.8,1.7,4.4,4.9,8,7c0.4-0.4,0.7-0.8,1.1-1.3c8.5-11.1-1.8-21.5-10-21.4c0,0,5.2-4,12.2,3.3
			c5.1,5.3,5.4,14.2,1,21.3c3.1,0.8,6.7,0.6,10.9-1.3c12.4-5.6,2.9-20.8-2.6-26.4c-6-6.2-20.5-19.3-24.1-32.6
			c-3.9-14.2,13.2-23.3,22.4-14.3c2.7,2.6,4.1,4.5,5.2,5.6c0.7,0.7,2.1,0,0.4-2c-1.3-1.6-5.1-9.7,4.4-11.7c1-0.2,2-2.7,3.4-3.2
			c2.1-0.7,1.9-0.1,2.6-0.4c3.3-1.2,3.4,0.4,6.3-0.4c1.1-0.3,1.8,0,2.3,0.5l4.8-2.1l2.2-2.4l-1.5,2.7l2.9,0.6L191.7,6.5z M107.1,55.8
			c0,1.1-0.1,2.2-0.2,3.1c-0.7,6.9-2.2,22.5,6.7,21.5c2.7-0.3,5.2-5,2.9-11.8C115,63.9,111.7,58.9,107.1,55.8z M113.1,77.1
			c-0.9,0.1-1.3-0.2-1.6-0.5c-2.1-2.1-2-9-1.7-13.8c1.6,2,2.8,4.4,3.6,6.7C114.9,74.1,113.6,76.7,113.1,77.1z M98.8,93.4
			c-3.6,3.3-6.8,8.4-7.7,13.9c1.1-0.4,2-0.8,2.9-1.1c6.6-2.2,21.4-7.3,16.8-15C109.4,88.8,104,88.6,98.8,93.4z M108.3,94.6
			c-1,2.8-7.4,5.6-11.9,7.3c1.2-2.3,2.8-4.4,4.6-6.1c3.5-3.2,6.4-3.2,7-2.8C108.5,93.8,108.4,94.2,108.3,94.6z M120.8,87.2
			c-1.3,2.4,1.1,7.1,7.9,9.2c4.7,1.4,10.7,1.7,15.9-0.2c-0.9-0.7-1.7-1.4-2.4-2C136.9,89.7,125.1,79.3,120.8,87.2z M129.6,93.3
			c-4.5-1.4-5.9-4-5.9-4.7c0.5-0.8,0.9-1,1.3-1c3-0.5,8.5,3.6,12.2,6.7C134.6,94.4,132,94.1,129.6,93.3z"/>
	</g>
</g>
</svg>
