<?xml version="1.0" encoding="utf-8"?>
<!-- Generator: Adobe Illustrator 23.0.6, SVG Export Plug-In . SVG Version: 6.00 Build 0)  -->
<svg version="1.1" xmlns="http://www.w3.org/2000/svg" xmlns:xlink="http://www.w3.org/1999/xlink" x="0px" y="0px"
	 viewBox="0 0 240 240" style="enable-background:new 0 0 240 240;" xml:space="preserve">
<style type="text/css">
	.productfill{fill:#111111;}
	.productoutline1{fill:#474747;}
	.productoutline2{fill:#1F1F1F;}
	.led{fill:#000000;}
	.selection{
		stroke: #44d62c;
		stroke-width: 2px;
		stroke-linejoin: round;
		fill: transparent;
		position: relative;
		}
	.producttext {
		font-family:'Roboto-Regular';
		font-size:14px;
		fill:#222222;
		}
</style>
<g id="Product">
	<circle class="productfill" cx="120" cy="120" r="100"/>
	<text transform="matrix(1 0 0 1 75 157.6052)" class="producttext">CHROMALINK</text>
</g>
<g id="LED">
	<circle id="led-1" class="led" cx="81" cy="58" r="8"/>
	<circle id="led-2" class="led" cx="107" cy="58" r="8"/>
	<circle id="led-3" class="led" cx="133" cy="58" r="8"/>
	<circle id="led-4" class="led" cx="159" cy="58" r="8"/>
	<path id="led-5" class="led" d="M120,24c52.93,0,96,43.07,96,96s-43.07,96-96,96s-96-43.07-96-96S67.07,24,120,24 M120,20 			C64.77,20,20,64.77,20,120s44.77,100,100,100s100-44.77,100-100S175.23,20,120,20L120,20z"/>
</g>
</svg>
