<?xml version="1.0" encoding="utf-8"?>
<svg version="1.1" xmlns="http://www.w3.org/2000/svg" xmlns:xlink="http://www.w3.org/1999/xlink" x="0px" y="0px" width="440px"
	 height="480px" viewBox="0 0 440 480" style="enable-background:new 0 0 440 480;" xml:space="preserve">
<style type="text/css">
	.productfill{fill:#111111;}
	.productoutline1{fill:#474747;}
	.productoutline2{fill:#1F1F1F;}
	.led{fill:#000000;}
	.selection{
		stroke: #44d62c;
		stroke-width: 2px;
		stroke-linejoin: round;
		fill: transparent;
		position: relative;
</style>
<g id="Product">
	<path class="productfill" d="M411,206c0-1.1-0.9-2-2-2h-3c-2-98.7-82.6-178-181.8-178h-8.3C116.7,26,36.1,105.3,34,204h-3c-1.1,0-2,0.9-2,2
		v23c0,0.6,0.3,1.1,0.7,1.5c-0.4,0.4-0.7,0.9-0.7,1.5v22c0,1.1,0.9,2,2,2h4.7c1,0.5,1.9,1.3,2.5,2.3l8.2,14.8c1,1.9,0.9,4.2-0.4,5.9
		l-12.6,15.2c-0.6,0.7-0.7,1.8-0.2,2.6l3.6,6.5l-1.1,6.3l2.4,4.4c0,0-1.2,14.4,2.2,20.5c0,0-2,4.6-1.1,6.3
		c1,1.7,40.7,73.5,41.7,75.2c1,1.7,6.4,3.3,6.4,3.3c2.4,4.4,15.7,11.9,15.7,11.9l1.9,3.5l5.9,2.4l3.6,6.5c0.5,0.8,1.4,1.3,2.3,1.2
		l19.6-2.6c1.6-0.2,2.5-2,1.7-3.4l-3.2-5.8c1.8,0.4,5.3,0.5,9.6-1.9c7.8-4.3,15,4.2,19.3,6.2c0.6,0.5,1.5,0.6,2.2,0.2l14-7.8
		l0.8-1.2c1.1-1.6,2.8-2.6,4.8-2.6c0.9,0,1.9-0.3,2.7-0.8l18.9-10.5c7.7-4.3,10.5-14,6.2-21.8L129,240.7c-4.3-7.7-14-10.5-21.8-6.2
		L88.4,245c-0.8,0.5-1.5,1.1-2,1.9c-1,1.6-2.8,2.5-4.6,2.6l-1.6,0.1l-8.2,4.6c-1.8-2.6-3.6-6.2-3.4-9.4c0.2-2.7,2-6.1,3.7-9.3
		c2.7-5,5.4-10.3,4.2-15.5c-1.5-6.8-8-10.5-14.3-14.1c-3.6-2.1-7.4-4.2-10-6.9c-3-3-3.3-6-2.9-8.1c2.5,0,5-1.2,6.4-3.6
		c7.1-12,16.7-22.8,27.4-32.3c12.4-10.9,26.4-20,41.3-27.3c14.9-7.3,30.6-12.6,46.7-16.1c16.1-3.5,32.6-4.9,49-4.6
		c16.4-0.3,32.9,1,49,4.6c16.1,3.5,31.9,8.8,46.7,16.1c14.9,7.3,28.9,16.4,41.3,27.3c10.7,9.4,20.3,20.2,27.4,32.3
		c1.4,2.3,3.8,3.6,6.4,3.6c0.4,2.1,0.1,5-2.9,8.1c-2.6,2.6-6.4,4.8-10,6.9c-6.3,3.6-12.8,7.3-14.3,14.1c-1.2,5.3,1.6,10.5,4.2,15.5
		c1.7,3.3,3.5,6.7,3.7,9.3c0.2,3.2-1.6,6.8-3.4,9.4l-8.2-4.6l-1.6-0.1c-1.9-0.1-3.6-1.1-4.6-2.6c-0.5-0.8-1.2-1.4-2-1.9l-18.9-10.5
		c-7.7-4.3-17.5-1.5-21.8,6.2l-84.4,152.2c-4.3,7.7-1.5,17.5,6.2,21.8l18.9,10.5c0.8,0.5,1.7,0.7,2.7,0.8c1.9,0.1,3.7,1.1,4.8,2.6
		l0.8,1.2l14,7.8c0.7,0.4,1.6,0.3,2.2-0.2c4.2-1.9,11.5-10.5,19.3-6.2c4.3,2.4,7.8,2.2,9.6,1.9l-3.2,5.8c-0.8,1.4,0.1,3.2,1.7,3.4
		l19.6,2.6c0.9,0.1,1.9-0.3,2.3-1.2l3.6-6.5l5.9-2.4l1.9-3.5c0,0,13.3-7.5,15.7-11.9c0,0,5.4-1.6,6.4-3.3c1-1.7,40.7-73.5,41.7-75.2
		c1-1.7-1.1-6.3-1.1-6.3c3.4-6.1,2.2-20.5,2.2-20.5l2.4-4.4l-1.1-6.3l3.6-6.5c0.5-0.8,0.4-1.9-0.2-2.6L394,279
		c-1.2-1.7-1.4-4-0.4-5.9l8.2-14.8c0.6-1,1.4-1.8,2.5-2.3h4.7c1.1,0,2-0.9,2-2v-22c0-0.6-0.3-1.1-0.7-1.5c0.4-0.4,0.7-0.9,0.7-1.5
		V206z M51,256c1.1,0,2-0.9,2-2v-22c0-0.6-0.3-1.1-0.7-1.5c0.4-0.4,0.7-0.9,0.7-1.5v-21.8c2,1.3,4.1,2.5,6.1,3.7
		c5.4,3.1,10.5,6,11.4,10.2c0.7,3.1-1.5,7.3-3.7,11.4c-2,3.8-4.1,7.8-4.4,11.7c-0.3,4.8,2,9.4,4.2,12.7l-0.5,0.3
		c-0.1,0.1-0.2,0.1-0.3,0.2c-0.1,0.1-0.1,0.1-0.2,0.2c0,0,0,0-0.1,0.1c0,0-0.1,0.1-0.1,0.1c-2.2,3.1,0.9,13.8-5.2,19.8
		c-1.5,1.5-2.7,2.8-3.7,4c0-0.2-0.1-0.4-0.2-0.6l0.8-1.5c0.6-1.1,0.7-2.4,0.2-3.6L50.4,256H51z M382.8,279.5l0.8,1.5
		c-0.1,0.2-0.1,0.4-0.2,0.6c-1-1.2-2.3-2.5-3.7-4c-6-6-2.9-16.7-5.2-19.8c0,0-0.1-0.1-0.1-0.1c0,0,0,0-0.1-0.1
		c-0.1-0.1-0.1-0.1-0.2-0.2c-0.1-0.1-0.2-0.2-0.3-0.2l-0.5-0.3c2.2-3.3,4.5-7.9,4.2-12.7c-0.3-3.9-2.4-7.9-4.4-11.7
		c-2.2-4.1-4.4-8.3-3.7-11.4c0.9-4.2,6-7.1,11.4-10.2c2.1-1.2,4.2-2.4,6.1-3.7V229c0,0.6,0.3,1.1,0.7,1.5c-0.4,0.4-0.7,0.9-0.7,1.5
		v22c0,1.1,0.9,2,2,2h0.6l-7.1,19.9C382.2,277.1,382.3,278.4,382.8,279.5z M46,204c0-0.5,0-0.9,0-1.4c0-0.1,0-0.2,0-0.3
		c0-0.4,0-0.8,0.1-1.3c0.5,0.7,1.1,1.4,1.8,2.1c0.3,0.3,0.6,0.6,0.9,0.9H46z M391.2,204c0.3-0.3,0.6-0.6,0.9-0.9
		c0.7-0.7,1.3-1.4,1.8-2.1c0,0.4,0,0.9,0.1,1.3c0,0.1,0,0.2,0,0.3c0,0.5,0,0.9,0,1.4H391.2z M398,204c0-0.7,0-1.5,0-2.2
		c0-0.2,0-0.3,0-0.5c0-0.7-0.1-1.5-0.1-2.3c0-0.2,0-0.4,0-0.5c-0.2-1.7-0.4-3.6-0.8-5.4c0,0,0-0.1,0-0.1c0,0,0,0,0,0c0,0,0,0,0,0
		c0.1-1.7-0.2-3.4-0.6-4.8c1.8-2.2,2.2-5.3,0.8-7.9c-7.5-14.1-17.5-26.5-28.8-37.4c-13.1-12.6-27.9-23.3-43.8-32
		c-15.9-8.7-32.9-15.4-50.5-20.1c-17.6-4.7-35.8-7.1-54-7.6c-18.3,0.5-36.5,2.9-54,7.6c-17.6,4.7-34.6,11.4-50.5,20.1
		c-15.9,8.7-30.7,19.4-43.8,32c-11.2,10.9-21.3,23.3-28.8,37.4c-1.4,2.6-1,5.7,0.8,7.9c-0.4,1.4-0.7,3-0.6,4.8c0,0,0,0,0,0
		c0,0,0,0,0,0c0,0,0,0.1,0,0.1c-0.4,1.9-0.6,3.7-0.8,5.4c0,0.2,0,0.4,0,0.5c-0.1,0.8-0.1,1.6-0.1,2.3c0,0.2,0,0.3,0,0.5
		c0,0.8,0,1.5,0,2.2h-2c1-45.5,19.1-88.2,51.5-120.5C124.7,50.3,168.9,32,215.8,32h8.3c47,0,91.1,18.3,124.3,51.5
		c32.3,32.3,50.5,75,51.5,120.5H398z"/>
	<path class="productoutline2" d="M131.4,360.6c1.4-0.8,3.2-0.3,3.9,1.1l1.6,2.8c0.8,1.4,0.3,3.2-1.1,3.9s-3.2,0.3-3.9-1.1l-1.6-2.8
		C129.5,363.1,130,361.4,131.4,360.6 M130.9,359.7c-1.9,1-2.6,3.4-1.5,5.3l1.6,2.8c1,1.9,3.4,2.6,5.3,1.5c1.9-1,2.6-3.4,1.5-5.3
		l-1.6-2.8C135.2,359.4,132.8,358.7,130.9,359.7L130.9,359.7z M169.2,426.6c0.3-0.2,0.6-0.2,0.7-0.3l1.4,2.5
		c-0.1,0.1-0.3,0.3-0.6,0.5l-1.8,1c-0.3,0.2-0.6,0.2-0.7,0.3l-1.4-2.5c0.1-0.1,0.3-0.3,0.6-0.5L169.2,426.6 M168.7,425.7l-1.8,1
		c-0.8,0.5-1.4,1.1-1.2,1.5l1.7,3.1c0.2,0.3,1,0.2,1.9-0.2l1.8-1c0.8-0.5,1.4-1.1,1.2-1.5l-1.7-3.1
		C170.4,425.1,169.5,425.2,168.7,425.7L168.7,425.7z M162.5,416.6c1.6-0.9,2.9-0.7,3.1-0.3l1.2,2.2c0.2,0.4-0.4,1.6-1.9,2.5
		c-1.6,0.9-2.9,0.7-3.1,0.3l-1.2-2.2C160.3,418.7,160.9,417.4,162.5,416.6 M162,415.7c-1.9,1-2.9,2.8-2.3,3.8l1.2,2.2
		c0.6,1.1,2.6,1.1,4.5,0.1s2.9-2.8,2.3-3.8l-1.2-2.2C165.9,414.7,163.8,414.7,162,415.7L162,415.7z M148,382.3l8.7,15.7l-7,3.9
		l-8.7-15.7L148,382.3 M147.5,381.4l-7,3.9c-0.5,0.3-0.7,0.9-0.4,1.4l8.7,15.7c0.3,0.5,0.9,0.7,1.4,0.4l7-3.9
		c0.5-0.3,0.7-0.9,0.4-1.4l-8.7-15.7C148.6,381.3,148,381.1,147.5,381.4L147.5,381.4z M158.1,408.7c0.3-0.2,0.7-0.1,0.8,0.1
		c0.1,0.2,0,0.6-0.3,0.8c-0.3,0.2-0.7,0.1-0.8-0.1C157.6,409.2,157.8,408.9,158.1,408.7 M157.6,407.8c-0.8,0.4-1.1,1.4-0.7,2.1
		c0.4,0.7,1.4,1,2.2,0.5c0.8-0.4,1.1-1.4,0.7-2.1C159.4,407.6,158.4,407.4,157.6,407.8L157.6,407.8z M292,382.3l7,3.9l-8.7,15.7
		l-7-3.9L292,382.3 M292.5,381.4c-0.5-0.3-1.1-0.1-1.4,0.4l-8.7,15.7c-0.3,0.5-0.1,1.1,0.4,1.4l7,3.9c0.5,0.3,1.1,0.1,1.4-0.4
		l8.7-15.7c0.3-0.5,0.1-1.1-0.4-1.4L292.5,381.4L292.5,381.4z"/>
	<path class="productoutline1" d="M411,206c0-1.1-0.9-2-2-2h-3c-2-98.7-82.6-178-181.8-178h-8.3C116.7,26,36.1,105.3,34,204h-3c-1.1,0-2,0.9-2,2
		v23c0,0.6,0.3,1.1,0.7,1.5c-0.4,0.4-0.7,0.9-0.7,1.5v22c0,1.1,0.9,2,2,2h4.7c1,0.5,1.9,1.3,2.5,2.3l7.6,13.7l0.6,1.1
		c1.1,1.9,0.9,4.2-0.4,5.9l-12.6,15.2c-0.6,0.7-0.7,1.8-0.2,2.6l3.6,6.5l-1.1,6.3l2.4,4.4c0,0-1.2,14.4,2.2,20.5c0,0-2,4.6-1.1,6.3
		c1,1.7,40.7,73.5,41.7,75.2c1,1.7,6.4,3.3,6.4,3.3c2.4,4.4,15.7,11.9,15.7,11.9l1.9,3.5l5.9,2.4l3.6,6.5c0.5,0.8,1.4,1.3,2.3,1.2
		l19.6-2.6c0.3,0,0.6-0.1,0.8-0.3c1.1-0.6,1.5-2,0.9-3.1l-3.2-5.8c1.8,0.4,5.3,0.5,9.6-1.9c7.8-4.3,15,4.2,19.3,6.2
		c0.6,0.5,1.5,0.6,2.2,0.2l14-7.8l0.8-1.2c0.5-0.8,1.3-1.4,2.1-1.9c0.8-0.5,1.7-0.7,2.7-0.8c0.9,0,1.9-0.3,2.7-0.8l18.9-10.5
		c7.7-4.3,10.5-14,6.2-21.8L129,240.7c-4.3-7.7-14-10.5-21.8-6.2L88.4,245c-0.8,0.5-1.5,1.1-2,1.9c-0.5,0.8-1.2,1.4-2,1.9
		c-0.8,0.4-1.7,0.7-2.6,0.7l-1.6,0.1c0,0-4.9,2.7-8.9,4.9l0.7-0.4c-1.8-2.6-3.6-6.1-3.4-9.4c0.2-2.7,2-6.1,3.7-9.3
		c2.7-5,5.4-10.3,4.3-15.5c-1.5-6.8-8-10.5-14.3-14.1c-3.6-2.1-7.4-4.2-10-6.9c-3-3-3.3-6-2.9-8.1c0,0,0.1,0,0.1,0
		c2.5,0,4.9-1.3,6.2-3.6c7.1-12,16.7-22.8,27.4-32.3c12.4-10.9,26.4-20,41.3-27.3c14.9-7.3,30.6-12.6,46.7-16.1
		c14.6-3.2,29.5-4.6,44.4-4.6c1.5,0,7.6,0,9.1,0c14.9,0,29.8,1.4,44.4,4.6c16.1,3.5,31.9,8.8,46.7,16.1
		c14.9,7.3,28.9,16.4,41.3,27.3c10.7,9.4,20.3,20.2,27.4,32.3c1.3,2.3,3.7,3.6,6.2,3.6c0,0,0.1,0,0.1,0c0.4,2.1,0.1,5.1-2.9,8.1
		c-2.6,2.6-6.4,4.8-10,6.9c-6.3,3.6-12.8,7.3-14.3,14.1c-1.2,5.3,1.6,10.5,4.3,15.5c1.7,3.3,3.5,6.7,3.7,9.3
		c0.2,3.2-1.6,6.8-3.4,9.4l0.7,0.4c-4-2.2-8.9-4.9-8.9-4.9l-1.6-0.1c-0.9,0-1.8-0.3-2.6-0.7c-0.8-0.4-1.5-1.1-2-1.9
		c-0.5-0.8-1.2-1.4-2-1.9l-18.9-10.5c-7.7-4.3-17.5-1.5-21.8,6.2l-84.4,152.2c-4.3,7.7-1.5,17.5,6.2,21.8l18.9,10.5
		c0.8,0.5,1.7,0.7,2.7,0.8c1,0,1.9,0.3,2.7,0.8c0.8,0.5,1.5,1.1,2.1,1.9l0.8,1.2l14,7.8c0.7,0.4,1.6,0.3,2.2-0.2
		c4.2-1.9,11.5-10.5,19.3-6.2c4.3,2.4,7.8,2.2,9.6,1.9l-3.2,5.8c-0.6,1.2-0.2,2.5,0.9,3.1c0.2,0.1,0.5,0.2,0.8,0.3l19.6,2.6
		c0.9,0.1,1.9-0.3,2.3-1.2l3.6-6.5l5.9-2.4l1.9-3.5c0,0,13.3-7.5,15.7-11.9c0,0,5.4-1.6,6.4-3.3c1-1.7,40.7-73.5,41.7-75.2
		c1-1.7-1.1-6.3-1.1-6.3c3.4-6.1,2.2-20.5,2.2-20.5l2.4-4.4l-1.1-6.3l3.6-6.5c0.5-0.8,0.4-1.9-0.2-2.6L394,279
		c-1.2-1.7-1.4-4-0.4-5.9l0.6-1.1l7.6-13.7c0.6-1,1.4-1.8,2.5-2.3h4.7c1.1,0,2-0.9,2-2v-22c0-0.6-0.3-1.1-0.7-1.5
		c0.4-0.4,0.7-0.9,0.7-1.5V206z M89.2,78.8c34-33.4,79-51.8,126.7-51.8h8.3c47.7,0,92.6,18.4,126.7,51.8
		C384.8,112.1,404,156.5,405,204h-4c-1-45.7-19.3-88.8-51.8-121.2C315.8,49.4,271.4,31,224.2,31h-8.3c-47.2,0-91.6,18.4-125,51.8
		C58.4,115.2,40,158.3,39,204h-4C36,156.5,55.3,112.1,89.2,78.8z M393.3,190.3c0.2-0.1,0.3-0.1,0.5-0.2c0.5-0.2,0.9-0.5,1.3-0.8
		c1.5,5.3,1.9,10.5,1.9,14.7h-2C395,200.1,394.6,195.3,393.3,190.3z M394,204h-2.8c0.3-0.3,0.6-0.6,0.9-0.9c0.7-0.7,1.3-1.4,1.8-2.1
		C394,202.1,394,203.1,394,204z M396.9,192.9c0.1-1.7-0.2-3.4-0.6-4.8c0,0-0.1,0.1-0.1,0.1c1.8-2.2,2.3-5.3,0.9-8
		c-7.5-14.1-17.5-26.5-28.8-37.4c-13.1-12.6-27.9-23.3-43.8-32c-15.9-8.7-32.9-15.4-50.5-20.1c-17.6-4.7-35.8-7.1-54-7.6
		c-18.3,0.5-36.5,2.9-54,7.6c-17.6,4.7-34.6,11.4-50.5,20.1c-15.9,8.7-30.7,19.4-43.8,32c-11.2,10.9-21.3,23.3-28.8,37.4
		c-1.4,2.7-0.9,5.8,0.9,8c0,0-0.1-0.1-0.1-0.1c-0.4,1.4-0.7,3.1-0.6,4.8c-0.8,4-1.1,7.9-1.1,11.1h-2c1-45.5,19.1-88.2,51.5-120.5
		C124.7,50.3,168.9,32,215.8,32h8.3c47,0,91.1,18.3,124.3,51.5c32.3,32.3,50.5,75,51.5,120.5h-2C398,200.8,397.7,196.9,396.9,192.9z
		 M45,204h-2c0-4.2,0.4-9.3,1.9-14.7c0.4,0.3,0.8,0.6,1.3,0.8c0.2,0.1,0.3,0.1,0.5,0.2C45.4,195.3,45,200.1,45,204z M46.1,201.1
		c0.5,0.7,1.1,1.4,1.8,2.1c0.3,0.3,0.6,0.6,0.9,0.9H46C46,203.1,46,202.1,46.1,201.1z M30,206c0-0.6,0.4-1,1-1h20c0.6,0,1,0.4,1,1
		v23c0,0.6-0.4,1-1,1H31c-0.6,0-1-0.4-1-1V206z M52.3,230.5c0.4-0.4,0.7-0.9,0.7-1.5v-21.8c2,1.3,4.1,2.5,6.2,3.7
		c5.4,3.1,10.5,6,11.4,10.2c0.7,3.1-1.5,7.3-3.7,11.4c-2,3.8-4.1,7.8-4.4,11.7c-0.3,4.8,2,9.4,4.1,12.7l0.2-0.1
		c-0.4,0.2-0.7,0.4-0.7,0.4c-0.4,0.2-0.6,0.6-0.7,0.6c-2.2,3.1,0.8,13.8-5.2,19.8c-1.5,1.5-2.7,2.8-3.7,4c0-0.2-0.1-0.4-0.2-0.6
		l0.8-1.5c0.6-1.1,0.7-2.4,0.3-3.6l-7-19.9H51c1.1,0,2-0.9,2-2v-22C53,231.4,52.7,230.9,52.3,230.5z M56.3,279.1l-0.4,0.7
		c0,0,0,0,0,0l-10.7-21c-0.4-0.9-0.5-1.9-0.2-2.8l0.6,0h3.7l7.2,20.2C56.8,277.2,56.7,278.2,56.3,279.1z M31,255c-0.6,0-1-0.4-1-1
		v-22c0-0.6,0.4-1,1-1h20c0.6,0,1,0.4,1,1v22c0,0.6-0.4,1-1,1H31z M46.6,271.5L39,257.9c-0.4-0.7-0.9-1.3-1.4-1.8l6.3,0
		c-0.3,1.1-0.1,2.2,0.4,3.2l10.7,21c1,2,0.9,4.5-0.4,6.4l-0.5,0.7l-3.2-5.8c0.1-1.2-0.2-2.4-0.8-3.5l-2.9-5.2L46.6,271.5z M49.5,279
		c-0.5-0.6-1.3-0.8-2-0.8c0.3-0.7,0.4-1.4,0.5-2.1l1.3,2.3C49.4,278.5,49.4,278.8,49.5,279z M81.8,415.5l-41.7-75.2
		c-0.4-0.7,0.1-2.9,0.8-4.7c5.8,10.5,40,72.2,45.7,82.5C84.5,417.3,82.2,416.3,81.8,415.5z M88.2,418.8l-47-84.8
		c-2.6-4.6-2.4-14.6-2.2-18.4l63.1,113.9C97.9,426.9,89.9,421.8,88.2,418.8z M105.7,433.9l-1.8-3.2L39,313.5l-2.3-4.1l0.8-4.7
		l72.6,131L105.7,433.9z M137.3,439.2c0.4,0.7,0,1.5-0.5,1.8c-0.1,0.1-0.3,0.1-0.5,0.2l-19.6,2.6c-0.5,0.1-1.1-0.2-1.3-0.7l-3.6-6.5
		L37.7,302.8l-3.6-6.5c-0.3-0.5-0.2-1.1,0.1-1.5l12.6-15.2c0.1-0.1,0.2-0.2,0.4-0.3c0.5-0.3,1.4-0.2,1.8,0.5l1,1.8l0.8,1.4l3.4,6.2
		l79.5,143.4L137.3,439.2z M160.7,434c-4.3-3.1-10.3-7.4-16.6-3.8c-5,2.8-8.7,1.9-9.7,1.5L54.7,288.2l0,0l0.7-1.1
		c0.9-1.3,1.3-2.9,1.3-4.4c0,0.1,0,0.2,0,0.3c1.1-1.3,2.6-2.9,4.3-4.6c4-4,4.3-9.8,4.4-14.4c0-1.3,0.1-2.5,0.2-3.5l96.9,174.9
		C162,435,161.3,434.5,160.7,434z M81.8,250.4c1.1-0.1,2.1-0.4,3-0.9c1-0.5,1.8-1.3,2.4-2.2c0.4-0.6,1-1.2,1.7-1.6l18.9-10.5
		c7.2-4,16.4-1.4,20.4,5.8l84.4,152.2c4,7.2,1.4,16.4-5.8,20.4l-18.9,10.5c-0.7,0.4-1.5,0.6-2.2,0.6c-1.1,0-2.2,0.4-3.1,0.9
		c-1,0.5-1.8,1.3-2.4,2.2l-0.5,0.8L80.7,250.5L81.8,250.4z M79.8,250.9l98.9,178.4l-13.1,7.3c-0.5,0.3-1.1,0.1-1.4-0.4L66.3,259.5
		c-0.3-0.5-0.1-1.1,0.4-1.4L79.8,250.9z M51.4,199.6c2.7,2.7,6.6,4.9,10.2,7c6.1,3.5,12.4,7.1,13.8,13.5c1.1,4.9-1.6,9.9-4.2,14.8
		c-1.8,3.4-3.6,6.9-3.8,9.7c-0.2,3.6,1.7,7.3,3.5,9.9c-1.4,0.8-2.6,1.5-3.5,1.9c-2.1-3.1-4.3-7.6-4-12.1c0.3-3.7,2.3-7.6,4.3-11.3
		c2.2-4.3,4.6-8.6,3.8-12.1c-1-4.6-6.3-7.7-11.9-10.9c-2.2-1.3-4.5-2.6-6.6-4v0c0-1.1-0.9-2-2-2h-0.7c-0.6-0.5-1.2-1-1.7-1.6
		c-1-1-1.8-2-2.4-3c0.2-2.8,0.7-5.8,1.5-8.8c0.2,0,0.3,0.1,0.5,0.1C47.8,193,48.1,196.3,51.4,199.6z M390.7,189.8
		c-2.2,0-4.3-1.2-5.4-3.1c-6.7-11.3-15.9-22.2-27.6-32.5c-12.1-10.7-26.1-19.9-41.5-27.5c-14.8-7.2-30.6-12.6-47-16.2
		c-14-3.1-29.1-4.6-44.7-4.6c-1.2,0-3.6,0-4.6,0c-1,0-3.4,0-4.6,0c-15.6,0-30.6,1.6-44.7,4.6c-16.4,3.5-32.2,9-47,16.2
		c-15.4,7.5-29.4,16.8-41.5,27.5c-11.7,10.3-20.9,21.2-27.6,32.5c-1.1,1.9-3.2,3.1-5.4,3.1c-0.9,0-1.8-0.2-2.6-0.6
		c-1.6-0.7-2.7-2-3.3-3.7c-0.5-1.6-0.4-3.4,0.4-4.9c6.8-12.9,16.2-25.1,28.6-37.2c12.6-12.2,27.2-22.9,43.6-31.9
		c15.7-8.6,32.6-15.3,50.3-20c16.5-4.4,34.3-7,52.8-7.6l1,0l1,0c18.5,0.6,36.3,3.1,52.8,7.6c17.7,4.7,34.6,11.4,50.3,20
		c16.3,9,31,19.7,43.6,31.9c12.4,12.1,21.8,24.2,28.6,37.2c0.8,1.5,0.9,3.2,0.4,4.9c-0.6,1.6-1.7,3-3.3,3.7
		C392.5,189.6,391.6,189.8,390.7,189.8z M372.5,244.6c-0.2-2.9-2-6.4-3.8-9.7c-2.6-4.9-5.2-10-4.2-14.8c1.4-6.4,7.7-10,13.8-13.5
		c3.7-2.1,7.5-4.3,10.2-7c3.3-3.3,3.6-6.5,3.2-8.9c0.2,0,0.3-0.1,0.5-0.1c0.8,3.1,1.3,6.1,1.5,8.8c-0.6,1-1.4,2-2.4,3
		c-0.5,0.5-1.1,1.1-1.7,1.6H389c-1.1,0-2,0.9-2,2v0c-2.1,1.5-4.4,2.8-6.6,4c-5.6,3.2-10.9,6.2-11.9,10.9c-0.8,3.5,1.5,7.9,3.8,12.1
		c2,3.7,4,7.6,4.3,11.3c0.3,4.6-1.9,9-4,12.1c-0.9-0.5-2.1-1.2-3.5-1.9C370.8,252,372.7,248.2,372.5,244.6z M389,256h0.6l-7,19.9
		c-0.4,1.2-0.3,2.5,0.3,3.6l0.8,1.5c-0.1,0.2-0.1,0.4-0.2,0.6c-1-1.2-2.3-2.5-3.7-4c-6-6-2.9-16.7-5.2-19.8c0,0-0.3-0.4-0.7-0.6
		c0,0-0.3-0.2-0.7-0.4l0.2,0.1c2.2-3.3,4.5-7.9,4.1-12.7c-0.3-3.9-2.3-7.9-4.4-11.7c-2.2-4.1-4.4-8.3-3.7-11.4
		c0.9-4.2,6-7.1,11.4-10.2c2.1-1.2,4.2-2.4,6.2-3.7V229c0,0.6,0.3,1.1,0.7,1.5c-0.4,0.4-0.7,0.9-0.7,1.5v22
		C387,255.1,387.9,256,389,256z M390.7,256h3.7l0.6,0c0.3,0.9,0.2,1.9-0.2,2.8l-10.7,21c0,0,0,0,0,0l-0.4-0.7
		c-0.5-0.9-0.5-1.9-0.2-2.8L390.7,256z M260,427.9c-0.6-0.9-1.4-1.7-2.4-2.2c-1-0.5-2-0.8-3.1-0.9c-0.8,0-1.6-0.3-2.2-0.6
		l-18.9-10.5c-7.2-4-9.9-13.2-5.8-20.4l84.4-152.2c4-7.2,13.2-9.9,20.4-5.8l18.9,10.5c0.7,0.4,1.3,0.9,1.7,1.6
		c0.6,0.9,1.4,1.7,2.4,2.2c0.9,0.5,2,0.8,3,0.9l1.1,0.1l-98.8,178.2L260,427.9z M275.8,436.2c-0.3,0.5-0.9,0.7-1.4,0.4l-13.1-7.3
		l98.9-178.4l13.1,7.3c0.5,0.3,0.7,0.9,0.4,1.4L275.8,436.2z M296,430.2c-6.4-3.5-12.3,0.7-16.6,3.8c-0.6,0.5-1.3,0.9-1.9,1.4
		l96.9-174.9c0.1,1,0.2,2.2,0.2,3.5c0.2,4.6,0.4,10.3,4.4,14.4c1.7,1.7,3.2,3.3,4.3,4.6c0-0.1,0-0.2,0-0.3c-0.1,1.6,0.3,3.1,1.3,4.4
		l0.7,1.1l0,0l-79.6,143.6C304.7,432.1,301,433,296,430.2z M399.9,340.3l-41.7,75.2c-0.4,0.7-2.7,1.8-4.8,2.5
		c5.7-10.3,39.9-72,45.7-82.5C399.8,337.4,400.3,339.6,399.9,340.3z M398.8,334l-47,84.8c-1.7,3-9.6,8.1-13.9,10.7L401,315.6
		C401.2,319.4,401.4,329.4,398.8,334z M403.2,309.4l-2.3,4.1l-65,117.2l-1.8,3.2l-4.4,1.8l72.6-131L403.2,309.4z M393.2,279.6
		l12.6,15.2c0.3,0.4,0.4,1,0.1,1.5l-3.6,6.5l-74.2,133.8l-3.6,6.5c-0.3,0.5-0.8,0.7-1.3,0.7l-19.6-2.6c-0.2,0-0.3-0.1-0.5-0.2
		c-0.5-0.3-0.9-1.1-0.5-1.8l3.7-6.7l79.5-143.4l3.4-6.2l0.8-1.4l1-1.8c0.4-0.7,1.2-0.8,1.8-0.5C393,279.4,393.1,279.5,393.2,279.6z
		 M390.5,279c0.1-0.2,0.2-0.4,0.3-0.6l1.3-2.3c0,0.7,0.2,1.4,0.5,2.1C391.7,278.1,391,278.4,390.5,279z M401,257.9l-7.6,13.7
		l-0.6,1.1l-2.9,5.2c-0.6,1.1-0.9,2.3-0.8,3.5l-3.2,5.8l-0.5-0.7c-1.3-1.9-1.4-4.3-0.4-6.4l10.7-21c0.5-1,0.6-2.1,0.4-3.2l6.3,0
		C401.8,256.6,401.3,257.2,401,257.9z M410,254c0,0.6-0.4,1-1,1h-20c-0.6,0-1-0.4-1-1v-22c0-0.6,0.4-1,1-1h20c0.6,0,1,0.4,1,1V254z
		 M410,229c0,0.6-0.4,1-1,1h-20c-0.6,0-1-0.4-1-1v-23c0-0.6,0.4-1,1-1h20c0.6,0,1,0.4,1,1V229z"/>
</g>
<g id="LED">
	<g id="led-1" class="led">
		<path d="M352.6,419.3c0,0,5.4-1.6,6.4-3.3c1-1.7,40.7-73.5,41.7-75.2c1-1.7-1.1-6.3-1.1-6.3 C398,337.8,353.2,417.9,352.6,419.3z"/>
		<path d="M40.3,334.5c0,0-2,4.6-1.1,6.3c1,1.7,40.7,73.5,41.7,75.2c1,1.7,6.4,3.3,6.4,3.3 C86.8,417.9,42,337.8,40.3,334.5z"/>
	</g>
</g>
</svg>
