<svg xmlns="http://www.w3.org/2000/svg" xmlns:xlink="http://www.w3.org/1999/xlink" width="39" height="39" viewBox="0 0 39 39"><defs><path id="34z2a" d="M81.07 214.5a9.57 9.57 0 1 1-19.14 0 9.57 9.57 0 0 1 19.14 0zm-3.2 0a6.38 6.38 0 1 0-12.75 0 6.38 6.38 0 0 0 12.76 0zm-6.37-12.12c-.7 0-1.28-.57-1.28-1.28v-3.82a1.28 1.28 0 0 1 2.55 0v3.82c0 .7-.57 1.28-1.27 1.28zm0 30.62c-.7 0-1.28-.57-1.28-1.28v-3.82a1.28 1.28 0 0 1 2.55 0v3.82c0 .7-.57 1.28-1.27 1.28zm12.12-18.5c0-.7.57-1.28 1.28-1.28h3.82a1.28 1.28 0 0 1 0 2.55H84.9c-.7 0-1.28-.57-1.28-1.27zm-30.62 0c0-.7.57-1.28 1.28-1.28h3.82a1.28 1.28 0 0 1 0 2.55h-3.82c-.7 0-1.28-.57-1.28-1.27zm24.65-10.44c-.6-.36-.8-1.15-.45-1.75l1.94-3.3c.36-.6 1.14-.8 1.75-.45.6.35.8 1.14.45 1.74l-1.94 3.3c-.36.6-1.15.81-1.75.46zm-15.54 26.38c-.6-.35-.8-1.14-.45-1.74l1.94-3.3c.36-.6 1.15-.81 1.75-.46.6.36.8 1.15.45 1.75l-1.94 3.3c-.36.6-1.14.8-1.75.45zm19.83-9.79c.36-.6 1.15-.8 1.75-.45l3.3 1.94c.6.36.8 1.14.45 1.75-.35.6-1.14.8-1.74.45l-3.3-1.94c-.6-.36-.81-1.15-.46-1.75zm-26.38-15.54c.35-.6 1.14-.8 1.74-.45l3.3 1.94c.6.36.81 1.15.46 1.75-.36.6-1.15.8-1.75.45l-3.3-1.94c-.6-.36-.8-1.14-.45-1.75zm26.48 3.4c-.35-.61-.14-1.4.47-1.74l3.33-1.9c.61-.34 1.4-.13 1.74.48.35.61.13 1.4-.48 1.74l-3.32 1.9c-.61.34-1.4.13-1.74-.48zm-26.62 15.14c-.35-.61-.13-1.4.48-1.74l3.32-1.9c.61-.34 1.4-.13 1.74.48.35.61.14 1.4-.47 1.74l-3.33 1.9c-.61.34-1.4.13-1.74-.48zm22.07 1.39c.61-.35 1.4-.14 1.74.47l1.9 3.33c.34.61.13 1.4-.48 1.74-.61.35-1.4.13-1.74-.48l-1.9-3.32c-.34-.61-.13-1.4.48-1.74zm-15.14-26.62c.61-.35 1.4-.13 1.74.48l1.9 3.32c.34.61.13 1.4-.48 1.74-.61.35-1.4.14-1.74-.47l-1.9-3.33c-.34-.61-.13-1.4.48-1.74z"/></defs><g><g transform="translate(-52 -195)"><use fill="#fff" xlink:href="#34z2a"/></g></g></svg>