<svg xmlns="http://www.w3.org/2000/svg" xmlns:xlink="http://www.w3.org/1999/xlink" width="40" height="40" viewBox="0 0 40 40"><defs><path id="sp3ea" d="M174.55 206.96a1.03 1.03 0 0 1-1.44-.17c-3.8-4.76-9.54-4.62-9.57-4.62h-.08c-.03 0-5.77-.14-9.57 4.62a1.03 1.03 0 0 1-1.44.17c-.45-.36-.52-1-.16-1.45a14.56 14.56 0 0 1 11.21-5.4c.51-.02 6.84-.09 11.21 5.4.36.44.29 1.1-.16 1.45zm7.45 7.56c0 8.06-5.15 14.9-12.33 17.45-.93.24-1.39-.98-1.39-.98-.9-1.98-1.7-4.26-1.7-6.18 0-2.46 1.86-6.14 5.3-8.1a10.64 10.64 0 0 1 7.97-.93c.03-.42.1-.83.1-1.26 0-9.08-7.38-16.47-16.45-16.47a16.47 16.47 0 0 0-16.44 16.47c0 .43.06.84.1 1.26 3.45-.85 6.13-.09 7.95.94 3.45 1.95 5.3 5.63 5.3 8.1 0 1.91-.79 4.2-1.69 6.17 0 0-.46 1.22-1.39.98a18.51 18.51 0 0 1 6.17-35.98c10.22 0 18.5 8.3 18.5 18.53zm-34.57 3.3a16.48 16.48 0 0 0 9.64 11.82c.71-1.63 1.3-3.38 1.3-4.83 0-1.61-1.33-4.63-4.27-6.3a8.7 8.7 0 0 0-6.67-.68zm32.14 0a8.7 8.7 0 0 0-6.67.69c-2.94 1.67-4.26 4.69-4.26 6.3 0 1.45.58 3.2 1.3 4.83a16.48 16.48 0 0 0 9.63-11.81z"/></defs><g><g transform="translate(-143 -194)"><use fill="#fff" xlink:href="#sp3ea"/></g></g></svg>