<svg xmlns="http://www.w3.org/2000/svg" xmlns:xlink="http://www.w3.org/1999/xlink" width="43" height="21" viewBox="0 0 43 21"><defs><path id="nhata" d="M273 207h-36v14h36zm0-2a2 2 0 0 1 2 2v14a2 2 0 0 1-2 2h-36a2 2 0 0 1-2-2v-14c0-1.1.9-2 2-2zm-30 12v2h-2v-2zm26-4v2h-2v-2zm-8 0v2h-2v-2zm-4 0v2h-2v-2zm-4 0v2h-2v-2zm-4 0v2h-2v-2zm16 0v2h-2v-2zm4 4v2h-2v-2zm-4 0v2h-2v-2zm-20-4v2h-4v-2zm-2-4v2h-2v-2zm4 0v2h-2v-2zm4 0v2h-2v-2zm4 0v2h-2v-2zm4 0v2h-2v-2zm4 0v2h-2v-2zm6 0v2h-4v-2zm-8 8v2h-16v-2z"/></defs><g><g transform="translate(-233 -203)"><use fill="#fff" xlink:href="#nhata"/></g></g></svg>