<svg xmlns="http://www.w3.org/2000/svg" xmlns:xlink="http://www.w3.org/1999/xlink" width="35" height="43" viewBox="0 0 35 43"><defs><path id="bgkma" d="M365.76 219.22c-.07.42-.19 1.13-4.34 3.14-1.02.5-1.93.75-2.72.75a2.8 2.8 0 0 1-2.73-1.87c-.4.1-.94.25-1.51.45l1.5 5.7c.05.2.05.4 0 .58-.06.25-1.72 5.93-11.02 6.03h-.16c-4.5 0-6.96-2.15-8.23-3.96-2.32-3.32-2.27-7.76-1.24-10.47a38.7 38.7 0 0 1 2.91-6.13l-3.53-1.98c-.3-.17-.5-.46-.55-.8-.04-.2-.85-5.19-.76-12.36 0-.45.28-.84.69-1.01 6.06-2.55 11.06-3.29 14.83-3.29 5.1 0 7.96 1.36 8.16 1.46.28.14.5.4.58.7l.86 3.14 2.23.74c.38.13.66.45.74.84l1.5 7.25 1.56 6.65 1.2 3.94c.05.16.06.33.03.5zm-26.56-7.52l.5.28 14.39-.78 6.69-3.8-1.16-5.62-1.75-.58-1-.34-.29-1.03-.75-2.73c-.85-.32-3.23-1.1-6.93-1.1-4.22 0-8.77.98-13.53 2.91-.04 5.63.49 9.73.67 11.01zm14.77 15.94l-1.38-5.22c-1.84.64-3.66.9-5.37.9-4.49 0-8.3-1.73-10.14-2.74-.77 2.32-.64 5.81 1.1 8.3 1.45 2.07 3.67 3.12 6.6 3.12h.16c6.82-.08 8.66-3.47 9.03-4.36zm1.27-8.28l-1.62-6.13-13.38.72-.31.53a34.1 34.1 0 0 0-2.11 4.22c2.13 1.18 8.16 3.98 14.25 1.78l-.02-.08 1.76-.6c.52-.18 1.01-.33 1.43-.44zm8.43-.56l-1.04-3.43-.02-.06-.02-.06-1.36-5.8-5.7 3.23 1.64 6.2h.04l.63 1.64c.12.32.26.43.38.49.13.07.29.1.48.1.34 0 .93-.1 1.85-.55a19.43 19.43 0 0 0 3.12-1.76zm-24.97-15.3c-.74 0-1.34-.6-1.34-1.35v-1.8c0-.74.6-1.35 1.34-1.35h1.8c.74 0 1.35.6 1.35 1.35v1.8c0 .75-.6 1.35-1.35 1.35zm5.14-1.85v-1.8c0-.74.6-1.35 1.35-1.35h1.79c.75 0 1.35.6 1.35 1.35v1.8c0 .75-.6 1.35-1.35 1.35h-1.8c-.74 0-1.34-.6-1.34-1.35zm5.98-.5v-1.8c0-.74.6-1.35 1.35-1.35h1.8c.74 0 1.34.6 1.34 1.35v1.8c0 .75-.6 1.35-1.35 1.35h-1.8c-.73 0-1.34-.6-1.34-1.35zM339.7 209c-.74 0-1.34-.6-1.34-1.35v-1.8c0-.74.6-1.35 1.34-1.35h1.8c.74 0 1.34.6 1.34 1.35v1.8c0 .75-.6 1.35-1.34 1.35zm8.28-5c.74 0 1.35.6 1.35 1.35v1.8c0 .75-.6 1.35-1.35 1.35h-1.8c-.74 0-1.34-.6-1.34-1.35v-1.8c0-.74.6-1.35 1.34-1.35zm4.68-.5h1.8c.74 0 1.35.6 1.35 1.35v1.8c0 .75-.6 1.35-1.35 1.35h-1.8c-.74 0-1.34-.6-1.34-1.35v-1.8c0-.74.6-1.35 1.34-1.35z"/></defs><g><g transform="translate(-332 -192)"><use fill="#fff" xlink:href="#bgkma"/></g></g></svg>