<svg xmlns="http://www.w3.org/2000/svg" xmlns:xlink="http://www.w3.org/1999/xlink" width="35" height="38" viewBox="0 0 35 38"><defs><path id="itcga" d="M439.5 231.9s-15.67 0-11.2-20.31c1.4-6.3 0-6.1 0-10.16 0-3.36 6.15-5.34 8.26-5.34.44 0 .7.09.7.26 0 1.02 2.24 1.02 2.24 1.02s2.23 0 2.23-1.02c0-.17.27-.26.7-.26 2.11 0 8.26 1.98 8.26 5.34 0 4.06-1.4 3.86 0 10.16 4.47 20.32-11.2 20.32-11.2 20.32zm-2.24-29.12v2.04c0 1.12 1 2.03 2.24 2.03 1.23 0 2.23-.91 2.23-2.03v-2.04c0-1.12-1-2.03-2.23-2.03-1.24 0-2.24.91-2.24 2.03zm11.23 9.2c-.98-4.43-.67-6.02-.35-7.7.16-.82.3-1.59.3-2.85 0-1.41-3.37-2.87-5.27-3.22-.43.41-1.03.72-1.74.93a4.06 4.06 0 0 1 2.54 3.64v2.04c0 1.89-1.45 3.48-3.38 3.92 0 .05.03.09.03.14v6.1c0 .56-.5 1.01-1.12 1.01-.62 0-1.12-.45-1.12-1.02v-6.1l.03-.13c-1.94-.44-3.39-2.03-3.39-3.92v-2.04c0-1.6 1.05-2.98 2.55-3.64a4.11 4.11 0 0 1-1.75-.93c-1.9.35-5.28 1.8-5.28 3.22 0 1.26.15 2.03.3 2.84.33 1.69.64 3.28-.34 7.72-1.47 6.7-.83 11.64 1.93 14.7 2.8 3.1 7.02 3.18 7.07 3.18.04 0 4.26-.08 7.06-3.19 2.76-3.05 3.4-8 1.93-14.7z"/></defs><g><g transform="translate(-422 -195)"><use fill="#fff" xlink:href="#itcga"/></g></g></svg>